<?xml version="1.0" encoding="UTF-8"?>
<svg id="Layer_1" data-name="Layer 1" xmlns="http://www.w3.org/2000/svg" viewBox="0 0 1097.63 199.11">
  <defs>
    <style>
      .cls-1 {
        fill: #fff;
      }

      .cls-2 {
        font-family: Menlo-Bold, Menlo;
        font-size: 200px;
        font-weight: 700;
      }

      .cls-3 {
        fill: #d5d9e0;
      }
    </style>
  </defs>
  <text class="cls-2" transform="translate(57.71 -70.53)"><tspan class="cls-3" x="0" y="0">r</tspan><tspan class="cls-1" x="120.41" y="0">o</tspan><tspan class="cls-3" x="240.82" y="0">b</tspan><tspan class="cls-1" x="361.23" y="0">o</tspan><tspan class="cls-3" x="481.64" y="0">t-see</tspan></text>
  <g>
    <path class="cls-3" d="M110.64,87.6c-3.12-2.86-6.79-5.01-10.99-6.45-4.2-1.43-8.81-2.15-13.82-2.15-6.05,0-11.34,1.06-15.87,3.17-4.53,2.12-8.02,5.19-10.5,9.23-1.56,2.48-2.65,5.47-3.27,8.98-.62,3.52-.93,8.85-.93,16.02v50.39h-28.61V57.43h28.61v16.99c2.8-6.25,7.1-11.08,12.89-14.5,5.79-3.42,12.56-5.13,20.31-5.13,3.91,0,7.73.47,11.47,1.42,3.74.94,7.31,2.33,10.69,4.15v27.25Z"/>
    <path class="cls-1" d="M128.22,112.21c0-17.64,4.57-31.62,13.72-41.94,9.15-10.32,21.44-15.48,36.87-15.48s27.82,5.16,36.96,15.48c9.15,10.32,13.72,24.3,13.72,41.94s-4.57,31.63-13.72,41.94c-9.15,10.32-21.47,15.48-36.96,15.48s-27.72-5.16-36.87-15.48c-9.15-10.32-13.72-24.3-13.72-41.94ZM178.8,78.03c-6.84,0-12.21,3.01-16.11,9.03-3.91,6.02-5.86,14.4-5.86,25.15s1.95,19.13,5.86,25.15c3.91,6.02,9.28,9.03,16.11,9.03s12.3-3.01,16.21-9.03c3.91-6.02,5.86-14.4,5.86-25.15s-1.95-19.12-5.86-25.15c-3.91-6.02-9.31-9.03-16.21-9.03Z"/>
    <path class="cls-3" d="M282.22,72.96c3.52-6.05,7.6-10.6,12.26-13.62,4.65-3.03,9.91-4.54,15.77-4.54,12.95,0,22.93,4.95,29.93,14.84,7,9.9,10.5,24.09,10.5,42.58s-3.45,32.36-10.35,42.38c-6.9,10.03-16.6,15.04-29.1,15.04-6.58,0-12.3-1.6-17.19-4.79s-8.82-7.94-11.82-14.26v16.21h-28.52V14.85h28.52v58.11ZM322.06,112.41c0-10.55-1.76-18.81-5.27-24.8-3.52-5.99-8.37-8.98-14.55-8.98s-11.07,3-14.65,8.98c-3.58,5.99-5.37,14.26-5.37,24.8s1.79,18.82,5.37,24.8c3.58,5.99,8.46,8.98,14.65,8.98s11.04-2.99,14.55-8.98c3.52-5.99,5.27-14.26,5.27-24.8Z"/>
    <path class="cls-1" d="M369.04,112.21c0-17.64,4.57-31.62,13.72-41.94,9.15-10.32,21.44-15.48,36.86-15.48s27.82,5.16,36.96,15.48c9.15,10.32,13.72,24.3,13.72,41.94s-4.57,31.63-13.72,41.94c-9.15,10.32-21.47,15.48-36.96,15.48s-27.72-5.16-36.86-15.48c-9.15-10.32-13.72-24.3-13.72-41.94ZM419.62,78.03c-6.84,0-12.21,3.01-16.11,9.03-3.91,6.02-5.86,14.4-5.86,25.15s1.95,19.13,5.86,25.15c3.91,6.02,9.28,9.03,16.11,9.03s12.3-3.01,16.21-9.03c3.91-6.02,5.86-14.4,5.86-25.15s-1.95-19.12-5.86-25.15c-3.91-6.02-9.31-9.03-16.21-9.03Z"/>
    <path class="cls-3" d="M547.26,26.37v31.05h37.4v21.97h-37.4v51.76c0,4.88,1.19,8.38,3.56,10.5,2.38,2.12,6.33,3.17,11.87,3.17h21.97v21.97h-24.02c-16.41,0-27.51-2.62-33.3-7.86-5.79-5.24-8.69-14.96-8.69-29.15v-50.39h-27.93v-21.97h27.93v-31.05h28.61Z"/>
    <path class="cls-3" d="M610.25,96.1h103.52v26.27h-103.52v-26.27Z"/>
    <path class="cls-3" d="M817.47,60.85v25c-5.27-3.38-10.76-5.94-16.46-7.67-5.7-1.72-11.41-2.59-17.14-2.59-6.38,0-11.2.93-14.45,2.78-3.26,1.86-4.88,4.61-4.88,8.25,0,5.21,6.97,9.44,20.9,12.7l1.07.29,8.2,1.95c10.42,2.48,18.05,6.46,22.9,11.96,4.85,5.5,7.28,12.94,7.28,22.31,0,11.26-3.7,19.71-11.08,25.34-7.39,5.63-18.51,8.45-33.35,8.45-6.58,0-13.31-.57-20.21-1.71-6.9-1.14-13.9-2.85-21-5.13v-25c6.31,3.58,12.74,6.32,19.29,8.2,6.54,1.89,12.87,2.83,18.99,2.83,6.71,0,11.78-.98,15.23-2.93,3.45-1.95,5.18-4.79,5.18-8.5s-1.22-6.45-3.66-8.4-8.25-4.04-17.43-6.25l-7.91-1.76c-10.94-2.47-18.91-6.35-23.93-11.62-5.01-5.27-7.52-12.34-7.52-21.19,0-10.55,3.81-18.75,11.43-24.61s18.33-8.79,32.13-8.79c6.18,0,12.35.5,18.51,1.51,6.15,1.01,12.12,2.52,17.92,4.54Z"/>
    <path class="cls-3" d="M948.72,161.43c-6.64,2.73-13.41,4.79-20.31,6.15-6.9,1.37-14.19,2.05-21.88,2.05-18.29,0-32.28-4.9-41.94-14.7-9.67-9.8-14.5-23.91-14.5-42.33s4.65-31.93,13.96-42.29c9.31-10.35,22-15.53,38.09-15.53s28.79,4.8,37.74,14.4c8.95,9.6,13.43,23.13,13.43,40.58v11.62h-74.12c.06,8.59,2.6,15.01,7.62,19.24,5.01,4.23,12.5,6.35,22.46,6.35,6.58,0,13.05-.94,19.43-2.83,6.38-1.89,13.05-4.88,20.02-8.98v26.27ZM924.51,99.91c-.13-7.55-2.07-13.26-5.81-17.14-3.74-3.87-9.26-5.81-16.55-5.81-6.58,0-11.82,2-15.72,6.01s-6.22,9.68-6.93,17.04l45.02-.1Z"/>
    <path class="cls-3" d="M1069.13,161.43c-6.64,2.73-13.41,4.79-20.31,6.15-6.9,1.37-14.19,2.05-21.88,2.05-18.29,0-32.28-4.9-41.94-14.7-9.67-9.8-14.5-23.91-14.5-42.33s4.65-31.93,13.96-42.29c9.31-10.35,22-15.53,38.09-15.53s28.79,4.8,37.74,14.4c8.95,9.6,13.43,23.13,13.43,40.58v11.62h-74.12c.06,8.59,2.6,15.01,7.62,19.24,5.01,4.23,12.5,6.35,22.46,6.35,6.58,0,13.05-.94,19.43-2.83,6.38-1.89,13.05-4.88,20.02-8.98v26.27ZM1044.92,99.91c-.13-7.55-2.07-13.26-5.81-17.14-3.74-3.87-9.26-5.81-16.55-5.81-6.58,0-11.82,2-15.72,6.01s-6.22,9.68-6.93,17.04l45.02-.1Z"/>
  </g>
  <ellipse class="cls-1" cx="185.42" cy="99.56" rx="8.89" ry="11.3"/>
  <ellipse class="cls-1" cx="426.16" cy="99.56" rx="8.89" ry="11.3"/>
</svg>
